<svg viewBox="0 0 512 256" xmlns="http://www.w3.org/2000/svg"><style>.st0{fill:#0091ff}.st1{fill:#ff9600}.st2{fill:#fff}</style><path d="M130.46 101.59l-43.71.59s7.87-16.93 7.68-18.14c-.2-1.2-1.93-2.36-3.76-2.4-3.57-.08-5.15 1.29-9.07 8.06-3.04 5.25-5.41 10.23 7.42 17.92 11.81 7.08 24.56 14.11 26.09 22.17 1.85 9.72-1.66 19.83-8.69 32.37-4.93 8.8-15.09 16.28-21.34 19.4-7.76 3.88-25.23 9.02-42.7 9.02-8.85 0-34.91-3.19-36.85-17.84-.69-5.17.22-12.55 4.87-22.08l4.56-9.74h44.31l-8.05 16.89c-2.33 4.77-3 10.17.89 10.17 2.2 0 3.79.2 5.7-1.52 1.92-1.73 3.7-4.29 5.37-7.7 3.65-7.49 4.61-10.08 3.92-12.46-.93-3.24-8.28-7.61-17.53-14.2-6.91-4.93-14.39-10.24-17.05-13.75-1.73-2.29-2.02-5.87-1.66-10.22s2.2-9.9 5.49-16.66c4.75-9.74 12.45-19.37 20.23-24 15.88-9.46 32.33-9.46 47.47-9.46 8.59 0 16.72 1.21 21.79 3.24 9.7 3.88 13.33 9.41 13.33 13.29 0 4.22.55 9.51-4.38 19.61l-4.33 7.44zM267.47 60.7l-58.21 127.22h-42.69l7.39-53.38-24.86 53.38h-40.75L164.62 60.7h41.04l-2.87 54.13 23.92-54.13h40.76zM450.74 60.7l-76.78 127.22h-59.93c5.75-19.54 9.4-35.96 18.66-60.89-6.53 10.69-17.49 27.1-38.8 60.89h-57.48L275.23 60.7h46.68l-18.14 47.7-13.02 34.36c12.05-22.21 25.23-48.51 47-82.06h49.27c-11.55 33.96-30.3 82.06-30.3 82.06 15.52-23.29 27.93-52.62 46.57-82.06h47.45z"/><path class="st0" d="M163.13 85.49l-43.71.59s7.87-16.93 7.68-18.14c-.2-1.2-1.93-2.36-3.76-2.4-3.57-.08-5.15 1.29-9.07 8.06-3.04 5.25-5.41 10.23 7.42 17.92 11.81 7.08 24.56 14.11 26.09 22.17 1.85 9.72-1.66 19.83-8.69 32.37-4.93 8.8-15.09 16.28-21.34 19.4-7.76 3.88-25.23 9.02-42.7 9.02-8.85 0-34.91-3.19-36.85-17.84-.69-5.17.22-12.55 4.87-22.08l4.56-9.74h44.31l-8.05 16.89c-2.33 4.77-3 10.17.89 10.17 2.2 0 3.79.2 5.7-1.52 1.92-1.73 3.7-4.29 5.37-7.7 3.65-7.49 4.61-10.08 3.92-12.46-.93-3.24-8.28-7.61-17.53-14.2-6.91-4.93-14.39-10.24-17.05-13.75-1.73-2.29-2.02-5.87-1.66-10.22s2.2-9.9 5.49-16.66c4.75-9.74 12.45-19.37 20.23-24 15.88-9.46 32.33-9.46 47.47-9.46 8.59 0 16.72 1.21 21.79 3.24 9.7 3.88 13.33 9.41 13.33 13.29 0 4.22.55 9.51-4.38 19.61l-4.33 7.44zM300.15 44.6l-58.21 127.22h-42.69l7.39-53.38-24.86 53.38h-40.75L197.3 44.6h41.04l-2.87 54.13L259.4 44.6h40.75zM483.42 44.6l-76.78 127.22h-59.93c5.75-19.54 9.4-35.96 18.66-60.89-6.53 10.69-17.49 27.1-38.8 60.89H269.1L307.91 44.6h46.68l-18.14 47.7-13.02 34.36c12.05-22.21 25.23-48.51 47-82.06h49.27c-11.55 33.96-30.3 82.06-30.3 82.06 15.52-23.29 27.93-52.62 46.57-82.06h47.45z"/><path class="st1" d="M31.65 227.14s-.59-.22-1.76-.66-2-1.1-2.49-1.96c-.49-.87-.61-1.93-.37-3.2l5.79-1.75c-.14 1.15.11 2.03.74 2.62s1.63.88 2.99.88c1.53 0 2.85-.27 3.97-.81s1.91-1.31 2.4-2.3l.57-1.18c.34-.7.4-1.28.17-1.73s-.65-.8-1.27-1.05-1.47-.52-2.54-.81a.21.21 0 01-.06-.04.21.21 0 01-.06-.04l-.25-.06c-1.62-.41-2.89-.84-3.82-1.29-.92-.45-1.55-1.16-1.88-2.13-.33-.96-.1-2.26.69-3.9l.36-.74c.74-1.52 1.77-2.82 3.09-3.9s2.86-1.9 4.62-2.46c1.77-.56 3.7-.84 5.81-.84 1.59 0 2.9.21 3.94.63 1.03.42 1.75 1.04 2.16 1.88s.53 1.86.34 3.08l-5.57 1.77c.09-1.08-.13-1.9-.65-2.45s-1.31-.83-2.37-.83c-1.5 0-2.78.26-3.85.77-1.06.52-1.82 1.25-2.29 2.19l-.41.85c-.36.74-.41 1.34-.15 1.81s.69.83 1.3 1.09 1.48.54 2.62.85c.07.01.14.03.2.05.07.02.13.05.19.08.07.01.13.02.19.03l.17.03c1.49.43 2.65.87 3.5 1.34.84.46 1.41 1.16 1.71 2.09s.07 2.17-.68 3.7l-.58 1.2c-.74 1.52-1.78 2.82-3.11 3.9s-2.89 1.9-4.69 2.46-3.78.84-5.95.84c-1.81-.01-2.72-.01-2.72-.01zM58.01 220.6c-.41.85-.46 1.5-.13 1.96s1.02.69 2.06.69c1.03 0 1.93-.22 2.69-.66s1.35-1.09 1.77-1.95l-1.19 3.09c-.94 1.06-2.01 1.89-3.21 2.5s-2.46.91-3.78.91c-2.12 0-3.48-.55-4.08-1.66s-.38-2.71.64-4.81l6.31-12.93h5.18l-6.26 12.86zm12.68-12.86h5.16l-9.33 19.12h-5.16l9.33-19.12zM81.51 207.74h5.23l-9.33 19.12h-5.23l9.33-19.12zm8.62 6.63c.47-.97.55-1.71.22-2.22s-1.04-.76-2.13-.76c-1.06 0-1.99.25-2.78.74s-1.42 1.2-1.87 2.14l1.09-3.2c1.17-1.19 2.41-2.09 3.71-2.71 1.3-.61 2.61-.92 3.93-.92 2.05 0 3.36.56 3.94 1.67s.37 2.69-.63 4.74l-6.35 13.02h-5.21l6.08-12.5zM97.55 226.39c-.71-.53-1.07-1.3-1.09-2.3s.32-2.22 1.02-3.66l3.03-6.21c.7-1.44 1.55-2.66 2.56-3.68 1-1.02 2.12-1.8 3.33-2.33s2.5-.8 3.85-.8c1.2 0 2.15.3 2.85.9s1.09 1.45 1.16 2.54l-2.09 3.32c.3-.61.43-1.14.39-1.57s-.24-.76-.6-.99-.88-.34-1.56-.34c-1.03 0-1.97.28-2.82.84s-1.52 1.34-2.01 2.35l-2.81 5.77c-.48.98-.56 1.74-.25 2.27.32.53.99.8 2.02.8.68 0 1.31-.11 1.89-.33s1.1-.55 1.56-.98.84-.95 1.13-1.55l-1.34 3.41c-.94 1.03-2.03 1.85-3.27 2.44-1.24.6-2.51.89-3.81.89-1.4.01-2.44-.25-3.14-.79zm21.47-26.31h5.21l-13.06 26.78h-5.21l13.06-26.78zM118.36 225.72c-.69-.95-.58-2.36.35-4.25.96-1.98 2.36-3.47 4.18-4.49 1.82-1.01 4.03-1.52 6.64-1.52h4.34l-1.33 3.39h-4.57c-1.03 0-1.91.22-2.65.65-.74.44-1.32 1.09-1.74 1.96-.36.74-.36 1.28.01 1.64s1.08.53 2.16.53c1.32 0 2.4-.18 3.25-.55s1.45-.91 1.8-1.64l-.61 2.19c-.51.77-1.15 1.42-1.9 1.94s-1.59.91-2.51 1.17-1.91.39-2.95.39c-2.3.01-3.78-.46-4.47-1.41zm16.12-11.84c.41-.85.44-1.51.07-1.98s-1.11-.71-2.21-.71c-.79 0-1.57.15-2.33.44s-1.46.7-2.07 1.22l-3.61-1.22c1.13-1.33 2.56-2.36 4.27-3.09 1.72-.74 3.58-1.11 5.6-1.11 1.74 0 3.11.25 4.11.76 1 .5 1.59 1.23 1.79 2.18s-.03 2.1-.69 3.44l-6.37 13.06h-4.89l6.33-12.99zM145.3 207.74h5.07l-1.9 16.58-4.93 4.24 1.76-20.82zm18.87 0l-20.01 23.6c-.7.82-1.47 1.49-2.3 2.01s-1.75.89-2.76 1.13-2.15.36-3.43.36h-1.16l1.99-4.09h1.21c.85 0 1.58-.14 2.19-.41s1.2-.74 1.77-1.42l17.43-21.18h5.07zM182.12 200.08h5l1.64 19.89-.87.53 9.96-20.43h4.96l-13.05 26.76h-5.07l-1.83-19.32.85-.53-9.68 19.86h-4.96l13.05-26.76zM208.49 200.15h5.16l-2.04 4.18h-5.16l2.04-4.18zm-3.71 7.59h5.16l-9.33 19.12h-5.16l9.33-19.12zM208.73 226.38c-.72-.53-1.08-1.3-1.09-2.3-.01-1.01.33-2.22 1.03-3.65l3.03-6.21c.7-1.44 1.55-2.66 2.56-3.68 1-1.02 2.11-1.79 3.33-2.32 1.21-.53 2.49-.79 3.84-.79 1.21 0 2.17.3 2.86.9s1.07 1.44 1.13 2.52l-2.09 3.3c.31-.63.44-1.15.4-1.57s-.23-.75-.59-.99c-.35-.24-.87-.36-1.55-.36-1.03 0-1.98.28-2.84.85-.86.56-1.53 1.34-2.02 2.34l-2.84 5.82c-.48.98-.56 1.74-.25 2.27.32.53 1 .8 2.04.8.68 0 1.31-.11 1.89-.33s1.09-.54 1.54-.97c.45-.42.82-.94 1.11-1.54l-1.33 3.37c-.91 1.02-1.98 1.83-3.23 2.42-1.25.6-2.52.89-3.82.89-1.34.03-2.39-.24-3.11-.77zm-3.67 7.05c-.91-.8-1.13-1.99-.66-3.55l5.56-1.23c-.17.71-.07 1.26.27 1.63.35.37.92.56 1.7.56 1.03 0 1.95-.25 2.77-.76.81-.5 1.44-1.21 1.89-2.12l9.86-20.22h5.23l-9.75 19.98c-.72 1.47-1.68 2.72-2.87 3.75-1.2 1.03-2.59 1.81-4.17 2.35s-3.31.81-5.17.81c-2.19.01-3.75-.4-4.66-1.2zM241.08 200.08h5.21l-13.06 26.78h-5.21l13.06-26.78zm4.87 14.31c.47-.97.55-1.71.22-2.22s-1.04-.76-2.13-.76c-1.06 0-1.99.24-2.79.73s-1.42 1.19-1.88 2.13l1.13-3.24c1.15-1.15 2.38-2.04 3.69-2.66s2.61-.93 3.93-.93c2.05 0 3.36.56 3.94 1.67s.37 2.69-.63 4.74l-6.35 13.02h-5.21l6.08-12.48zM258.25 207.74h10.78l-1.85 3.79H256.4l1.85-3.79zm-5.03 17.94c-.53-.85-.38-2.11.44-3.79l9.61-19.71h5.21l-9.38 19.23c-.23.48-.29.85-.16 1.11s.42.39.89.39h1.8l-1.98 4.05h-2.64c-1.99-.01-3.26-.43-3.79-1.28zM300 200.08h3.93l-4.34 19.52 13.21-19.52h5.32l-19.2 26.78h-5.16l4.18-18.22-13.86 18.22h-5.18l6.95-26.78h5.32l-5.86 19.52L300 200.08zM316.41 207.74h5.32l-9.33 19.12h-5.32l9.33-19.12zm9.24 4.01c-.32-.08-.72-.12-1.19-.12-1.46 0-2.75.33-3.87.99a6.488 6.488 0 00-2.58 2.76l1.62-4.31c1.26-1.15 2.61-2.05 4.04-2.69s2.82-.96 4.17-.96c.5 0 .93.06 1.29.19s.63.32.82.56l-3.55 3.92c-.18-.14-.43-.26-.75-.34zM327.67 226.28c-1.05-.57-1.66-1.4-1.83-2.5s.13-2.43.89-4l2.27-4.66c.79-1.62 1.81-3.01 3.05-4.15 1.24-1.15 2.65-2.02 4.24-2.62 1.58-.6 3.29-.9 5.12-.9 1.77 0 3.13.32 4.07.96s1.44 1.58 1.49 2.82-.34 2.72-1.18 4.44l-1.6 3.28h-13.33l1.55-3.19h8.41l.61-1.2c.49-1.03.56-1.85.23-2.45-.34-.6-1.03-.9-2.1-.9-1.2 0-2.28.33-3.25.99s-1.74 1.57-2.31 2.74l-2.43 4.97c-.53 1.09-.59 1.93-.18 2.52s1.24.88 2.5.88c.85 0 1.64-.17 2.37-.51s1.39-.83 1.99-1.48l3.87 1.29c-1.18 1.51-2.61 2.64-4.31 3.4-1.69.76-3.6 1.13-5.73 1.13-1.89 0-3.37-.29-4.41-.86zM349.21 226.33c-1.06-.54-1.67-1.34-1.85-2.4s.09-2.34.82-3.82l2.7-5.54c.72-1.49 1.7-2.77 2.92-3.84s2.63-1.89 4.21-2.44 3.31-.83 5.18-.83c1.58 0 2.83.18 3.76.55s1.54.94 1.84 1.72.28 1.74-.06 2.88l-5.39 1.25c.19-.82.11-1.44-.22-1.85-.34-.41-.95-.62-1.85-.62-1.14 0-2.16.28-3.08.84s-1.63 1.37-2.15 2.42l-2.61 5.36c-.5 1.02-.56 1.8-.19 2.35s1.13.82 2.28.82c.89 0 1.71-.2 2.45-.6s1.4-.99 1.98-1.78l4.15 1.33c-.78 1.13-1.68 2.07-2.72 2.82-1.03.75-2.2 1.3-3.5 1.66s-2.74.53-4.3.53c-1.85 0-3.31-.27-4.37-.81zM378.89 200.08h5.18l-13.06 26.78h-5.18l13.06-26.78zm-6.81 19.42l15.62-11.75h5.59l-23.49 16.93 2.28-5.18zm6.01-2.77l4.87-2.67 2.06 12.8h-5.73l-1.2-10.13zM395 207.74h11.71l-1.79 3.67h-11.71l1.79-3.67zm3.63-2.59c.83-1.69 1.93-2.96 3.32-3.8s3.09-1.26 5.11-1.26h3.39l-1.91 3.92h-2.68c-.49 0-.91.14-1.29.41-.37.27-.67.63-.89 1.09l-10.42 21.37h-5.21l10.58-21.73zM403.91 226.28c-1.05-.57-1.66-1.4-1.83-2.5s.13-2.43.89-4l2.27-4.66c.79-1.62 1.81-3.01 3.05-4.15 1.24-1.15 2.65-2.02 4.24-2.62 1.58-.6 3.29-.9 5.12-.9 1.77 0 3.13.32 4.07.96s1.44 1.58 1.49 2.82-.34 2.72-1.18 4.44l-1.6 3.28H407.1l1.55-3.19h8.41l.61-1.2c.49-1.03.56-1.85.23-2.45-.34-.6-1.03-.9-2.1-.9-1.2 0-2.28.33-3.25.99s-1.74 1.57-2.31 2.74l-2.43 4.97c-.53 1.09-.59 1.93-.18 2.52s1.24.88 2.5.88c.85 0 1.64-.17 2.37-.51s1.39-.83 1.99-1.48l3.87 1.29c-1.18 1.51-2.61 2.64-4.31 3.4-1.69.76-3.6 1.13-5.73 1.13-1.88 0-3.36-.29-4.41-.86zM424.64 226.62c-1.05-.34-1.8-.87-2.25-1.57s-.6-1.54-.45-2.52l5.21-1.73c.05.82.38 1.45.97 1.89s1.42.65 2.48.65c1.18 0 2.18-.19 2.99-.56s1.38-.89 1.7-1.56c.24-.49.25-.88.02-1.16s-.58-.49-1.05-.64-1.16-.29-2.05-.45c-.12-.02-.26-.05-.41-.06-.15-.02-.3-.05-.44-.1-.05 0-.08-.01-.12-.02-.03-.01-.08-.02-.13-.04-1.22-.23-2.2-.52-2.95-.85s-1.24-.87-1.48-1.61-.05-1.74.56-2.99c.6-1.24 1.44-2.3 2.5-3.17s2.31-1.54 3.75-2 3.01-.69 4.73-.69c1.44 0 2.64.16 3.59.49s1.65.8 2.08 1.44.61 1.41.52 2.33l-5.24 1.69c-.04-.7-.3-1.23-.78-1.6s-1.17-.55-2.06-.55c-1.05 0-1.93.17-2.65.52-.72.34-1.24.84-1.56 1.49-.22.45-.22.82.02 1.09.23.27.6.47 1.1.6s1.21.27 2.13.43l.12.03c.04.01.09.01.13.01.02.01.06.02.1.03s.08.01.11.01c1.36.23 2.45.5 3.27.81s1.37.86 1.66 1.65.09 1.88-.58 3.27a9.281 9.281 0 01-2.6 3.22c-1.12.9-2.44 1.58-3.98 2.04-1.53.47-3.21.7-5.03.7-1.56 0-2.87-.17-3.93-.52zM449.67 207.74h10.78l-1.85 3.79h-10.78l1.85-3.79zm-5.02 17.94c-.53-.85-.38-2.11.44-3.79l9.61-19.71h5.21l-9.38 19.23c-.23.48-.29.85-.16 1.11s.42.39.89.39h1.8l-1.98 4.05h-2.64c-2-.01-3.27-.43-3.79-1.28z"/><path class="st2" d="M190.37 70.48l-43.71.59s7.87-16.93 7.68-18.14c-.2-1.2-1.93-2.36-3.76-2.4-3.57-.08-5.15 1.29-9.07 8.06-3.04 5.25-5.41 10.23 7.42 17.92 11.81 7.08 24.56 14.11 26.09 22.17 1.85 9.72-1.66 19.83-8.69 32.37-4.93 8.8-15.09 16.28-21.34 19.4-7.76 3.88-25.23 9.02-42.7 9.02-8.85 0-34.91-3.19-36.85-17.84-.69-5.17.22-12.55 4.87-22.08l4.56-9.74h44.31l-8.05 16.89c-2.33 4.77-3 10.17.89 10.17 2.2 0 3.79.2 5.7-1.52 1.92-1.73 3.7-4.29 5.37-7.7 3.65-7.49 4.61-10.08 3.92-12.46-.93-3.24-8.28-7.61-17.53-14.2-6.91-4.93-14.39-10.24-17.05-13.75-1.73-2.29-2.02-5.87-1.66-10.22s2.2-9.9 5.49-16.66c4.75-9.74 12.45-19.37 20.23-24 15.88-9.46 32.33-9.46 47.47-9.46 8.59 0 16.72 1.21 21.79 3.24 9.7 3.88 13.33 9.41 13.33 13.29 0 4.22.55 9.51-4.38 19.61l-4.33 7.44z"/><path class="st0" d="M102.27 160.48c-9.84 0-35.81-3.36-37.84-18.7-.59-4.48-.21-12.04 4.96-22.65l4.82-10.3h44.7c-1.33-.95-2.8-1.97-4.35-3.04-1.78-1.23-3.69-2.55-5.69-3.98l-.32-.23c-7-4.99-14.24-10.15-16.95-13.73-1.7-2.25-2.29-5.72-1.85-10.9.37-4.45 2.25-10.17 5.59-17.01 5.15-10.55 13.05-19.91 20.61-24.42 16.11-9.6 33.05-9.6 47.98-9.6 8.7 0 16.98 1.24 22.16 3.31 10.29 4.12 13.96 10.05 13.96 14.22 0 .37 0 .75.01 1.13.04 4 .11 9.49-4.49 18.92l-4.63 7.97-45.86.62.67-1.44c3.53-7.58 7.33-16.24 7.58-17.63-.18-.6-1.36-1.45-2.78-1.49-2.92-.08-4.31.87-8.19 7.57-2.73 4.71-5.3 9.15 7.07 16.57l2.64 1.58C163.6 84.11 174.49 90.6 176 98.5c1.73 9.07-.9 18.96-8.8 33.04-4.78 8.52-14.63 16.24-21.77 19.81-7.34 3.67-24.88 9.13-43.16 9.13zm-26.79-49.66l-4.29 9.17c-4.96 10.17-5.34 17.32-4.78 21.53 1.84 13.85 27.14 16.97 35.86 16.97 17.93 0 35.09-5.33 42.26-8.91 6.87-3.44 16.35-10.85 20.92-19 7.65-13.64 10.22-23.12 8.58-31.69-1.34-7.02-12.34-13.58-22.98-19.92l-2.64-1.58c-13-7.8-11.21-13.34-7.77-19.28 3.83-6.61 5.73-8.68 9.96-8.56 2.32.05 4.44 1.5 4.72 3.24.16.96-2.23 6.77-7.09 17.28l41.55-.56 4.02-6.92c4.36-8.94 4.3-13.94 4.26-17.96 0-.4-.01-.78-.01-1.16 0-3.36-3.33-8.62-12.7-12.37-4.95-1.98-12.96-3.17-21.42-3.17-15.4 0-31.32 0-46.96 9.32-7.25 4.32-14.86 13.35-19.84 23.58-3.23 6.62-5.04 12.1-5.39 16.3-.39 4.66.07 7.69 1.46 9.53 2.52 3.34 9.96 8.64 16.52 13.31l.31.22c1.99 1.42 3.9 2.74 5.66 3.96 6.87 4.75 11.41 7.89 12.24 10.78.79 2.74-.19 5.41-3.98 13.17-1.71 3.5-3.59 6.2-5.59 8-2.02 1.82-3.82 1.81-5.75 1.79h-.62c-1.73 0-2.63-.86-3.09-1.59-1.48-2.37-.3-6.73 1.3-10.02l7.36-15.46H75.48zm44.78-1.02L112 127.14c-1.67 3.43-2.25 6.75-1.41 8.09.17.28.51.65 1.39.65h.64c1.85.02 2.96.03 4.4-1.27 1.81-1.64 3.54-4.12 5.14-7.4 3.7-7.59 4.42-9.79 3.86-11.75-.41-1.43-2.6-3.34-5.76-5.66zm33.08-56.84z"/><path class="st2" d="M327.38 29.59l-58.21 127.22h-42.69l7.39-53.38-24.86 53.38h-40.75l56.27-127.22h41.04l-2.87 54.13 23.92-54.13h40.76z"/><path class="st0" d="M269.81 157.81h-44.48l6.64-47.93-22.32 47.93h-42.92l.62-1.4L223.88 28.6h42.74l-2.64 49.75 21.99-49.75h42.96l-59.12 129.21zm-42.19-2h40.9l57.3-125.22h-38.54L261.43 89.1l3.1-58.51h-39.34L169.8 155.81h38.58l27.39-58.83-8.15 58.83z"/><path class="st2" d="M510.65 29.59l-76.78 127.22h-59.93c5.75-19.54 9.4-35.96 18.66-60.89-6.53 10.69-17.49 27.1-38.8 60.89h-57.48l38.81-127.22h46.68l-18.14 47.7-13.02 34.36c12.05-22.21 25.23-48.51 47-82.06h49.27c-11.55 33.96-30.3 82.06-30.3 82.06 15.52-23.29 27.93-52.62 46.57-82.06h47.46z"/><path class="st0" d="M434.44 157.81h-61.82l.38-1.28c1.57-5.35 3.02-10.56 4.41-15.6 3.09-11.14 6.26-22.6 11.13-36.6-2.22 3.49-4.8 7.5-7.84 12.22-6.22 9.66-14.74 22.9-26.03 40.79l-.29.47H295l39.4-129.22h48.87L357.02 97.7c10.41-19.51 22.26-41.6 39.81-68.65l.3-.45h51.21l-.45 1.32c-8.36 24.59-20.62 56.9-26.66 72.65 5.75-9.51 11.22-19.82 16.92-30.6 7.37-13.93 15-28.33 24.23-42.91l.29-.46h49.76l-77.99 129.21zm-59.16-2h58.03l75.57-125.22h-45.12c-9.05 14.36-16.58 28.57-23.86 42.31-7.48 14.13-14.55 27.48-22.43 39.31l-5.1 7.65 3.34-8.57c.19-.47 18.39-47.23 29.83-80.7h-47.33c-17.59 27.15-29.43 49.32-39.87 68.88-2.33 4.37-4.58 8.58-6.79 12.66l-1.81-.83 13.02-34.36 17.63-46.35h-44.5l-38.2 125.22h55.58c11.15-17.67 19.58-30.76 25.74-40.34 5.62-8.74 9.69-15.05 12.76-20.07l1.79.87c-6.71 18.05-10.53 31.85-14.22 45.19-1.3 4.64-2.62 9.43-4.06 14.35z"/><path d="M4.41 10.79h508.01v5.82H4.41zM.42 238.5h483.87v5.82H.42z"/></svg>