<?xml version="1.0" encoding="UTF-8"?>
<svg enable-background="new 0 0 512 256" version="1.1" viewBox="0 0 512 256" xml:space="preserve" xmlns="http://www.w3.org/2000/svg">
<style type="text/css">
	.st0{fill:#0091FF;}
	.st1{fill:#FF9600;}
	.st2{fill:#FFFFFF;}
</style>

	
		<path d="m130.46 101.59-43.71 0.59s7.87-16.93 7.68-18.14c-0.2-1.2-1.93-2.36-3.76-2.4-3.57-0.08-5.15 1.29-9.07 8.06-3.04 5.25-5.41 10.23 7.42 17.92 11.81 7.08 24.56 14.11 26.09 22.17 1.85 9.72-1.66 19.83-8.69 32.37-4.93 8.8-15.09 16.28-21.34 19.4-7.76 3.88-25.23 9.02-42.7 9.02-8.85 0-34.91-3.19-36.85-17.84-0.69-5.17 0.22-12.55 4.87-22.08l4.56-9.74h44.31l-8.05 16.89c-2.33 4.77-3 10.17 0.89 10.17 2.2 0 3.79 0.2 5.7-1.52 1.92-1.73 3.7-4.29 5.37-7.7 3.65-7.49 4.61-10.08 3.92-12.46-0.93-3.24-8.28-7.61-17.53-14.2-6.91-4.93-14.39-10.24-17.05-13.75-1.73-2.29-2.02-5.87-1.66-10.22s2.2-9.9 5.49-16.66c4.75-9.74 12.45-19.37 20.23-24 15.88-9.46 32.33-9.46 47.47-9.46 8.59 0 16.72 1.21 21.79 3.24 9.7 3.88 13.33 9.41 13.33 13.29 0 4.22 0.55 9.51-4.38 19.61l-4.33 7.44z"/>
		<path d="m267.47 60.7-58.21 127.22h-42.69l7.39-53.38-24.86 53.38h-40.75l56.27-127.22h41.04l-2.87 54.13 23.92-54.13h40.76z"/>
		
			<path d="m450.74 60.7-76.78 127.22h-59.93c5.75-19.54 9.4-35.96 18.66-60.89-6.53 10.69-17.49 27.1-38.8 60.89h-57.48l38.82-127.22h46.68l-18.14 47.7-13.02 34.36c12.05-22.21 25.23-48.51 47-82.06h49.27c-11.55 33.96-30.3 82.06-30.3 82.06 15.52-23.29 27.93-52.62 46.57-82.06h47.45z"/>
		
	
	
		<path class="st0" d="m163.13 85.49-43.71 0.59s7.87-16.93 7.68-18.14c-0.2-1.2-1.93-2.36-3.76-2.4-3.57-0.08-5.15 1.29-9.07 8.06-3.04 5.25-5.41 10.23 7.42 17.92 11.81 7.08 24.56 14.11 26.09 22.17 1.85 9.72-1.66 19.83-8.69 32.37-4.93 8.8-15.09 16.28-21.34 19.4-7.76 3.88-25.23 9.02-42.7 9.02-8.85 0-34.91-3.19-36.85-17.84-0.69-5.17 0.22-12.55 4.87-22.08l4.56-9.74h44.31l-8.05 16.89c-2.33 4.77-3 10.17 0.89 10.17 2.2 0 3.79 0.2 5.7-1.52 1.92-1.73 3.7-4.29 5.37-7.7 3.65-7.49 4.61-10.08 3.92-12.46-0.93-3.24-8.28-7.61-17.53-14.2-6.91-4.93-14.39-10.24-17.05-13.75-1.73-2.29-2.02-5.87-1.66-10.22s2.2-9.9 5.49-16.66c4.75-9.74 12.45-19.37 20.23-24 15.88-9.46 32.33-9.46 47.47-9.46 8.59 0 16.72 1.21 21.79 3.24 9.7 3.88 13.33 9.41 13.33 13.29 0 4.22 0.55 9.51-4.38 19.61l-4.33 7.44z"/>
		<path class="st0" d="m300.15 44.6-58.21 127.22h-42.69l7.39-53.38-24.86 53.38h-40.75l56.27-127.22h41.04l-2.87 54.13 23.93-54.13h40.75z"/>
		
			<path class="st0" d="m483.42 44.6-76.78 127.22h-59.93c5.75-19.54 9.4-35.96 18.66-60.89-6.53 10.69-17.49 27.1-38.8 60.89h-57.47l38.81-127.22h46.68l-18.14 47.7-13.02 34.36c12.05-22.21 25.23-48.51 47-82.06h49.27c-11.55 33.96-30.3 82.06-30.3 82.06 15.52-23.29 27.93-52.62 46.57-82.06h47.45z"/>
		
	
	
		<path class="st1" d="m31.65 227.14s-0.59-0.22-1.76-0.66-2-1.1-2.49-1.96c-0.49-0.87-0.61-1.93-0.37-3.2l5.79-1.75c-0.14 1.15 0.11 2.03 0.74 2.62s1.63 0.88 2.99 0.88c1.53 0 2.85-0.27 3.97-0.81s1.91-1.31 2.4-2.3l0.57-1.18c0.34-0.7 0.4-1.28 0.17-1.73s-0.65-0.8-1.27-1.05-1.47-0.52-2.54-0.81c-0.02-0.01-0.04-0.02-0.06-0.04-0.02-0.01-0.04-0.02-0.06-0.04l-0.25-0.06c-1.62-0.41-2.89-0.84-3.82-1.29-0.92-0.45-1.55-1.16-1.88-2.13-0.33-0.96-0.1-2.26 0.69-3.9l0.36-0.74c0.74-1.52 1.77-2.82 3.09-3.9s2.86-1.9 4.62-2.46c1.77-0.56 3.7-0.84 5.81-0.84 1.59 0 2.9 0.21 3.94 0.63 1.03 0.42 1.75 1.04 2.16 1.88s0.53 1.86 0.34 3.08l-5.57 1.77c0.09-1.08-0.13-1.9-0.65-2.45s-1.31-0.83-2.37-0.83c-1.5 0-2.78 0.26-3.85 0.77-1.06 0.52-1.82 1.25-2.29 2.19l-0.41 0.85c-0.36 0.74-0.41 1.34-0.15 1.81s0.69 0.83 1.3 1.09 1.48 0.54 2.62 0.85c0.07 0.01 0.14 0.03 0.2 0.05 0.07 0.02 0.13 0.05 0.19 0.08 0.07 0.01 0.13 0.02 0.19 0.03s0.11 0.02 0.17 0.03c1.49 0.43 2.65 0.87 3.5 1.34 0.84 0.46 1.41 1.16 1.71 2.09s0.07 2.17-0.68 3.7l-0.58 1.2c-0.74 1.52-1.78 2.82-3.11 3.9s-2.89 1.9-4.69 2.46-3.78 0.84-5.95 0.84c-1.81-0.01-2.72-0.01-2.72-0.01z"/>
		<path class="st1" d="m58.01 220.6c-0.41 0.85-0.46 1.5-0.13 1.96s1.02 0.69 2.06 0.69c1.03 0 1.93-0.22 2.69-0.66s1.35-1.09 1.77-1.95l-1.19 3.09c-0.94 1.06-2.01 1.89-3.21 2.5s-2.46 0.91-3.78 0.91c-2.12 0-3.48-0.55-4.08-1.66s-0.38-2.71 0.64-4.81l6.31-12.93h5.18l-6.26 12.86zm12.68-12.86h5.16l-9.33 19.12h-5.16l9.33-19.12z"/>
		<path class="st1" d="m81.51 207.74h5.23l-9.33 19.12h-5.23l9.33-19.12zm8.62 6.63c0.47-0.97 0.55-1.71 0.22-2.22s-1.04-0.76-2.13-0.76c-1.06 0-1.99 0.25-2.78 0.74s-1.42 1.2-1.87 2.14l1.09-3.2c1.17-1.19 2.41-2.09 3.71-2.71 1.3-0.61 2.61-0.92 3.93-0.92 2.05 0 3.36 0.56 3.94 1.67s0.37 2.69-0.63 4.74l-6.35 13.02h-5.21l6.08-12.5z"/>
		<path class="st1" d="m97.55 226.39c-0.71-0.53-1.07-1.3-1.09-2.3s0.32-2.22 1.02-3.66l3.03-6.21c0.7-1.44 1.55-2.66 2.56-3.68 1-1.02 2.12-1.8 3.33-2.33s2.5-0.8 3.85-0.8c1.2 0 2.15 0.3 2.85 0.9s1.09 1.45 1.16 2.54l-2.09 3.32c0.3-0.61 0.43-1.14 0.39-1.57s-0.24-0.76-0.6-0.99-0.88-0.34-1.56-0.34c-1.03 0-1.97 0.28-2.82 0.84s-1.52 1.34-2.01 2.35l-2.81 5.77c-0.48 0.98-0.56 1.74-0.25 2.27 0.32 0.53 0.99 0.8 2.02 0.8 0.68 0 1.31-0.11 1.89-0.33s1.1-0.55 1.56-0.98 0.84-0.95 1.13-1.55l-1.34 3.41c-0.94 1.03-2.03 1.85-3.27 2.44-1.24 0.6-2.51 0.89-3.81 0.89-1.4 0.01-2.44-0.25-3.14-0.79zm21.47-26.31h5.21l-13.06 26.78h-5.21l13.06-26.78z"/>
		<path class="st1" d="m118.36 225.72c-0.69-0.95-0.58-2.36 0.35-4.25 0.96-1.98 2.36-3.47 4.18-4.49 1.82-1.01 4.03-1.52 6.64-1.52h4.34l-1.33 3.39h-4.57c-1.03 0-1.91 0.22-2.65 0.65-0.74 0.44-1.32 1.09-1.74 1.96-0.36 0.74-0.36 1.28 0.01 1.64s1.08 0.53 2.16 0.53c1.32 0 2.4-0.18 3.25-0.55s1.45-0.91 1.8-1.64l-0.61 2.19c-0.51 0.77-1.15 1.42-1.9 1.94s-1.59 0.91-2.51 1.17-1.91 0.39-2.95 0.39c-2.3 0.01-3.78-0.46-4.47-1.41zm16.12-11.84c0.41-0.85 0.44-1.51 0.07-1.98s-1.11-0.71-2.21-0.71c-0.79 0-1.57 0.15-2.33 0.44s-1.46 0.7-2.07 1.22l-3.61-1.22c1.13-1.33 2.56-2.36 4.27-3.09 1.72-0.74 3.58-1.11 5.6-1.11 1.74 0 3.11 0.25 4.11 0.76 1 0.5 1.59 1.23 1.79 2.18s-0.03 2.1-0.69 3.44l-6.37 13.06h-4.89l6.33-12.99z"/>
		<path class="st1" d="m145.3 207.74h5.07l-1.9 16.58-4.93 4.24 1.76-20.82zm18.87 0-20.01 23.6c-0.7 0.82-1.47 1.49-2.3 2.01s-1.75 0.89-2.76 1.13-2.15 0.36-3.43 0.36h-1.16l1.99-4.09h1.21c0.85 0 1.58-0.14 2.19-0.41s1.2-0.74 1.77-1.42l17.43-21.18h5.07z"/>
		<path class="st1" d="m182.12 200.08h5l1.64 19.89-0.87 0.53 9.96-20.43h4.96l-13.05 26.76h-5.07l-1.83-19.32 0.85-0.53-9.68 19.86h-4.96l13.05-26.76z"/>
		<path class="st1" d="m208.49 200.15h5.16l-2.04 4.18h-5.16l2.04-4.18zm-3.71 7.59h5.16l-9.33 19.12h-5.16l9.33-19.12z"/>
		<path class="st1" d="m208.73 226.38c-0.72-0.53-1.08-1.3-1.09-2.3-0.01-1.01 0.33-2.22 1.03-3.65l3.03-6.21c0.7-1.44 1.55-2.66 2.56-3.68 1-1.02 2.11-1.79 3.33-2.32 1.21-0.53 2.49-0.79 3.84-0.79 1.21 0 2.17 0.3 2.86 0.9s1.07 1.44 1.13 2.52l-2.09 3.3c0.31-0.63 0.44-1.15 0.4-1.57s-0.23-0.75-0.59-0.99c-0.35-0.24-0.87-0.36-1.55-0.36-1.03 0-1.98 0.28-2.84 0.85-0.86 0.56-1.53 1.34-2.02 2.34l-2.84 5.82c-0.48 0.98-0.56 1.74-0.25 2.27 0.32 0.53 1 0.8 2.04 0.8 0.68 0 1.31-0.11 1.89-0.33s1.09-0.54 1.54-0.97c0.45-0.42 0.82-0.94 1.11-1.54l-1.33 3.37c-0.91 1.02-1.98 1.83-3.23 2.42-1.25 0.6-2.52 0.89-3.82 0.89-1.34 0.03-2.39-0.24-3.11-0.77zm-3.67 7.05c-0.91-0.8-1.13-1.99-0.66-3.55l5.56-1.23c-0.17 0.71-0.07 1.26 0.27 1.63 0.35 0.37 0.92 0.56 1.7 0.56 1.03 0 1.95-0.25 2.77-0.76 0.81-0.5 1.44-1.21 1.89-2.12l9.86-20.22h5.23l-9.75 19.98c-0.72 1.47-1.68 2.72-2.87 3.75-1.2 1.03-2.59 1.81-4.17 2.35s-3.31 0.81-5.17 0.81c-2.19 0.01-3.75-0.4-4.66-1.2z"/>
		<path class="st1" d="m241.08 200.08h5.21l-13.06 26.78h-5.21l13.06-26.78zm4.87 14.31c0.47-0.97 0.55-1.71 0.22-2.22s-1.04-0.76-2.13-0.76c-1.06 0-1.99 0.24-2.79 0.73s-1.42 1.19-1.88 2.13l1.13-3.24c1.15-1.15 2.38-2.04 3.69-2.66s2.61-0.93 3.93-0.93c2.05 0 3.36 0.56 3.94 1.67s0.37 2.69-0.63 4.74l-6.35 13.02h-5.21l6.08-12.48z"/>
		<path class="st1" d="m258.25 207.74h10.78l-1.85 3.79h-10.78l1.85-3.79zm-5.03 17.94c-0.53-0.85-0.38-2.11 0.44-3.79l9.61-19.71h5.21l-9.38 19.23c-0.23 0.48-0.29 0.85-0.16 1.11s0.42 0.39 0.89 0.39h1.8l-1.98 4.05h-2.64c-1.99-0.01-3.26-0.43-3.79-1.28z"/>
		<path class="st1" d="m300 200.08h3.93l-4.34 19.52 13.21-19.52h5.32l-19.2 26.78h-5.16l4.18-18.22-13.86 18.22h-5.18l6.95-26.78h5.32l-5.86 19.52 14.69-19.52z"/>
		<path class="st1" d="m316.41 207.74h5.32l-9.33 19.12h-5.32l9.33-19.12zm9.24 4.01c-0.32-0.08-0.72-0.12-1.19-0.12-1.46 0-2.75 0.33-3.87 0.99-1.13 0.66-1.99 1.58-2.58 2.76l1.62-4.31c1.26-1.15 2.61-2.05 4.04-2.69s2.82-0.96 4.17-0.96c0.5 0 0.93 0.06 1.29 0.19s0.63 0.32 0.82 0.56l-3.55 3.92c-0.18-0.14-0.43-0.26-0.75-0.34z"/>
		<path class="st1" d="m327.67 226.28c-1.05-0.57-1.66-1.4-1.83-2.5s0.13-2.43 0.89-4l2.27-4.66c0.79-1.62 1.81-3.01 3.05-4.15 1.24-1.15 2.65-2.02 4.24-2.62 1.58-0.6 3.29-0.9 5.12-0.9 1.77 0 3.13 0.32 4.07 0.96s1.44 1.58 1.49 2.82-0.34 2.72-1.18 4.44l-1.6 3.28h-13.33l1.55-3.19h8.41l0.61-1.2c0.49-1.03 0.56-1.85 0.23-2.45-0.34-0.6-1.03-0.9-2.1-0.9-1.2 0-2.28 0.33-3.25 0.99s-1.74 1.57-2.31 2.74l-2.43 4.97c-0.53 1.09-0.59 1.93-0.18 2.52s1.24 0.88 2.5 0.88c0.85 0 1.64-0.17 2.37-0.51s1.39-0.83 1.99-1.48l3.87 1.29c-1.18 1.51-2.61 2.64-4.31 3.4-1.69 0.76-3.6 1.13-5.73 1.13-1.89 0-3.37-0.29-4.41-0.86z"/>
		<path class="st1" d="m349.21 226.33c-1.06-0.54-1.67-1.34-1.85-2.4s0.09-2.34 0.82-3.82l2.7-5.54c0.72-1.49 1.7-2.77 2.92-3.84s2.63-1.89 4.21-2.44 3.31-0.83 5.18-0.83c1.58 0 2.83 0.18 3.76 0.55s1.54 0.94 1.84 1.72 0.28 1.74-0.06 2.88l-5.39 1.25c0.19-0.82 0.11-1.44-0.22-1.85-0.34-0.41-0.95-0.62-1.85-0.62-1.14 0-2.16 0.28-3.08 0.84s-1.63 1.37-2.15 2.42l-2.61 5.36c-0.5 1.02-0.56 1.8-0.19 2.35s1.13 0.82 2.28 0.82c0.89 0 1.71-0.2 2.45-0.6s1.4-0.99 1.98-1.78l4.15 1.33c-0.78 1.13-1.68 2.07-2.72 2.82-1.03 0.75-2.2 1.3-3.5 1.66s-2.74 0.53-4.3 0.53c-1.85 0-3.31-0.27-4.37-0.81z"/>
		<path class="st1" d="m378.89 200.08h5.18l-13.06 26.78h-5.18l13.06-26.78zm-6.81 19.42 15.62-11.75h5.59l-23.49 16.93 2.28-5.18zm6.01-2.77 4.87-2.67 2.06 12.8h-5.73l-1.2-10.13z"/>
		<path class="st1" d="m395 207.74h11.71l-1.79 3.67h-11.71l1.79-3.67zm3.63-2.59c0.83-1.69 1.93-2.96 3.32-3.8s3.09-1.26 5.11-1.26h3.39l-1.91 3.92h-2.68c-0.49 0-0.91 0.14-1.29 0.41-0.37 0.27-0.67 0.63-0.89 1.09l-10.42 21.37h-5.21l10.58-21.73z"/>
		<path class="st1" d="m403.91 226.28c-1.05-0.57-1.66-1.4-1.83-2.5s0.13-2.43 0.89-4l2.27-4.66c0.79-1.62 1.81-3.01 3.05-4.15 1.24-1.15 2.65-2.02 4.24-2.62 1.58-0.6 3.29-0.9 5.12-0.9 1.77 0 3.13 0.32 4.07 0.96s1.44 1.58 1.49 2.82-0.34 2.72-1.18 4.44l-1.6 3.28h-13.33l1.55-3.19h8.41l0.61-1.2c0.49-1.03 0.56-1.85 0.23-2.45-0.34-0.6-1.03-0.9-2.1-0.9-1.2 0-2.28 0.33-3.25 0.99s-1.74 1.57-2.31 2.74l-2.43 4.97c-0.53 1.09-0.59 1.93-0.18 2.52s1.24 0.88 2.5 0.88c0.85 0 1.64-0.17 2.37-0.51s1.39-0.83 1.99-1.48l3.87 1.29c-1.18 1.51-2.61 2.64-4.31 3.4-1.69 0.76-3.6 1.13-5.73 1.13-1.88 0-3.36-0.29-4.41-0.86z"/>
		<path class="st1" d="m424.64 226.62c-1.05-0.34-1.8-0.87-2.25-1.57s-0.6-1.54-0.45-2.52l5.21-1.73c0.05 0.82 0.38 1.45 0.97 1.89s1.42 0.65 2.48 0.65c1.18 0 2.18-0.19 2.99-0.56s1.38-0.89 1.7-1.56c0.24-0.49 0.25-0.88 0.02-1.16s-0.58-0.49-1.05-0.64-1.16-0.29-2.05-0.45c-0.12-0.02-0.26-0.05-0.41-0.06-0.15-0.02-0.3-0.05-0.44-0.1-0.05 0-0.08-0.01-0.12-0.02-0.03-0.01-0.08-0.02-0.13-0.04-1.22-0.23-2.2-0.52-2.95-0.85s-1.24-0.87-1.48-1.61-0.05-1.74 0.56-2.99c0.6-1.24 1.44-2.3 2.5-3.17s2.31-1.54 3.75-2 3.01-0.69 4.73-0.69c1.44 0 2.64 0.16 3.59 0.49s1.65 0.8 2.08 1.44 0.61 1.41 0.52 2.33l-5.24 1.69c-0.04-0.7-0.3-1.23-0.78-1.6s-1.17-0.55-2.06-0.55c-1.05 0-1.93 0.17-2.65 0.52-0.72 0.34-1.24 0.84-1.56 1.49-0.22 0.45-0.22 0.82 0.02 1.09 0.23 0.27 0.6 0.47 1.1 0.6s1.21 0.27 2.13 0.43l0.12 0.03c0.04 0.01 0.09 0.01 0.13 0.01 0.02 0.01 0.06 0.02 0.1 0.03s0.08 0.01 0.11 0.01c1.36 0.23 2.45 0.5 3.27 0.81s1.37 0.86 1.66 1.65 0.09 1.88-0.58 3.27c-0.61 1.25-1.48 2.33-2.6 3.22-1.12 0.9-2.44 1.58-3.98 2.04-1.53 0.47-3.21 0.7-5.03 0.7-1.56 0-2.87-0.17-3.93-0.52z"/>
		<path class="st1" d="m449.67 207.74h10.78l-1.85 3.79h-10.78l1.85-3.79zm-5.02 17.94c-0.53-0.85-0.38-2.11 0.44-3.79l9.61-19.71h5.21l-9.38 19.23c-0.23 0.48-0.29 0.85-0.16 1.11s0.42 0.39 0.89 0.39h1.8l-1.98 4.05h-2.64c-2-0.01-3.27-0.43-3.79-1.28z"/>
	
	
		
			<path class="st2" d="m190.37 70.48-43.71 0.59s7.87-16.93 7.68-18.14c-0.2-1.2-1.93-2.36-3.76-2.4-3.57-0.08-5.15 1.29-9.07 8.06-3.04 5.25-5.41 10.23 7.42 17.92 11.81 7.08 24.56 14.11 26.09 22.17 1.85 9.72-1.66 19.83-8.69 32.37-4.93 8.8-15.09 16.28-21.34 19.4-7.76 3.88-25.23 9.02-42.7 9.02-8.85 0-34.91-3.19-36.85-17.84-0.69-5.17 0.22-12.55 4.87-22.08l4.56-9.74h44.31l-8.05 16.89c-2.33 4.77-3 10.17 0.89 10.17 2.2 0 3.79 0.2 5.7-1.52 1.92-1.73 3.7-4.29 5.37-7.7 3.65-7.49 4.61-10.08 3.92-12.46-0.93-3.24-8.28-7.61-17.53-14.2-6.91-4.93-14.39-10.24-17.05-13.75-1.73-2.29-2.02-5.87-1.66-10.22s2.2-9.9 5.49-16.66c4.75-9.74 12.45-19.37 20.23-24 15.88-9.46 32.33-9.46 47.47-9.46 8.59 0 16.72 1.21 21.79 3.24 9.7 3.88 13.33 9.41 13.33 13.29 0 4.22 0.55 9.51-4.38 19.61l-4.33 7.44z"/>
			<path class="st0" d="m102.27 160.48c-9.84 0-35.81-3.36-37.84-18.7-0.59-4.48-0.21-12.04 4.96-22.65l4.82-10.3h44.7c-1.33-0.95-2.8-1.97-4.35-3.04-1.78-1.23-3.69-2.55-5.69-3.98l-0.32-0.23c-7-4.99-14.24-10.15-16.95-13.73-1.7-2.25-2.29-5.72-1.85-10.9 0.37-4.45 2.25-10.17 5.59-17.01 5.15-10.55 13.05-19.91 20.61-24.42 16.11-9.6 33.05-9.6 47.98-9.6 8.7 0 16.98 1.24 22.16 3.31 10.29 4.12 13.96 10.05 13.96 14.22 0 0.37 0 0.75 0.01 1.13 0.04 4 0.11 9.49-4.49 18.92l-4.63 7.97-45.86 0.62 0.67-1.44c3.53-7.58 7.33-16.24 7.58-17.63-0.18-0.6-1.36-1.45-2.78-1.49-2.92-0.08-4.31 0.87-8.19 7.57-2.73 4.71-5.3 9.15 7.07 16.57l2.64 1.58c11.53 6.86 22.42 13.35 23.93 21.25 1.73 9.07-0.9 18.96-8.8 33.04-4.78 8.52-14.63 16.24-21.77 19.81-7.34 3.67-24.88 9.13-43.16 9.13zm-26.79-49.66-4.29 9.17c-4.96 10.17-5.34 17.32-4.78 21.53 1.84 13.85 27.14 16.97 35.86 16.97 17.93 0 35.09-5.33 42.26-8.91 6.87-3.44 16.35-10.85 20.92-19 7.65-13.64 10.22-23.12 8.58-31.69-1.34-7.02-12.34-13.58-22.98-19.92l-2.64-1.58c-13-7.8-11.21-13.34-7.77-19.28 3.83-6.61 5.73-8.68 9.96-8.56 2.32 0.05 4.44 1.5 4.72 3.24 0.16 0.96-2.23 6.77-7.09 17.28l41.55-0.56 4.02-6.92c4.36-8.94 4.3-13.94 4.26-17.96 0-0.4-0.01-0.78-0.01-1.16 0-3.36-3.33-8.62-12.7-12.37-4.95-1.98-12.96-3.17-21.42-3.17-15.4 0-31.32 0-46.96 9.32-7.25 4.32-14.86 13.35-19.84 23.58-3.23 6.62-5.04 12.1-5.39 16.3-0.39 4.66 0.07 7.69 1.46 9.53 2.52 3.34 9.96 8.64 16.52 13.31l0.31 0.22c1.99 1.42 3.9 2.74 5.66 3.96 6.87 4.75 11.41 7.89 12.24 10.78 0.79 2.74-0.19 5.41-3.98 13.17-1.71 3.5-3.59 6.2-5.59 8-2.02 1.82-3.82 1.81-5.75 1.79h-0.62c-1.73 0-2.63-0.86-3.09-1.59-1.48-2.37-0.3-6.73 1.3-10.02l7.36-15.46h-42.08zm44.78-1.02-8.26 17.34c-1.67 3.43-2.25 6.75-1.41 8.09 0.17 0.28 0.51 0.65 1.39 0.65h0.64c1.85 0.02 2.96 0.03 4.4-1.27 1.81-1.64 3.54-4.12 5.14-7.4 3.7-7.59 4.42-9.79 3.86-11.75-0.41-1.43-2.6-3.34-5.76-5.66zm33.08-56.84z"/>
		
		
			<path class="st2" d="m327.38 29.59-58.21 127.22h-42.69l7.39-53.38-24.86 53.38h-40.75l56.27-127.22h41.04l-2.87 54.13 23.92-54.13h40.76z"/>
			<path class="st0" d="m269.81 157.81h-44.48l6.64-47.93-22.32 47.93h-42.92l0.62-1.4 56.53-127.81h42.74l-2.64 49.75 21.99-49.75h42.96l-59.12 129.21zm-42.19-2h40.9l57.3-125.22h-38.54l-25.85 58.51 3.1-58.51h-39.34l-55.39 125.22h38.58l27.39-58.83-8.15 58.83z"/>
		
		
			
				<path class="st2" d="m510.65 29.59-76.78 127.22h-59.93c5.75-19.54 9.4-35.96 18.66-60.89-6.53 10.69-17.49 27.1-38.8 60.89h-57.48l38.81-127.22h46.68l-18.14 47.7-13.02 34.36c12.05-22.21 25.23-48.51 47-82.06h49.27c-11.55 33.96-30.3 82.06-30.3 82.06 15.52-23.29 27.93-52.62 46.57-82.06h47.46z"/>
				<path class="st0" d="m434.44 157.81h-61.82l0.38-1.28c1.57-5.35 3.02-10.56 4.41-15.6 3.09-11.14 6.26-22.6 11.13-36.6-2.22 3.49-4.8 7.5-7.84 12.22-6.22 9.66-14.74 22.9-26.03 40.79l-0.29 0.47h-59.38l39.4-129.22h48.87l-26.25 69.11c10.41-19.51 22.26-41.6 39.81-68.65l0.3-0.45h51.21l-0.45 1.32c-8.36 24.59-20.62 56.9-26.66 72.65 5.75-9.51 11.22-19.82 16.92-30.6 7.37-13.93 15-28.33 24.23-42.91l0.29-0.46h49.76l-77.99 129.21zm-59.16-2h58.03l75.57-125.22h-45.12c-9.05 14.36-16.58 28.57-23.86 42.31-7.48 14.13-14.55 27.48-22.43 39.31l-5.1 7.65 3.34-8.57c0.19-0.47 18.39-47.23 29.83-80.7h-47.33c-17.59 27.15-29.43 49.32-39.87 68.88-2.33 4.37-4.58 8.58-6.79 12.66l-1.81-0.83 13.02-34.36 17.63-46.35h-44.5l-38.2 125.22h55.58c11.15-17.67 19.58-30.76 25.74-40.34 5.62-8.74 9.69-15.05 12.76-20.07l1.79 0.87c-6.71 18.05-10.53 31.85-14.22 45.19-1.3 4.64-2.62 9.43-4.06 14.35z"/>
			
		
	
	<rect x="4.41" y="10.79" width="508.01" height="5.82"/>
	<rect x=".42" y="238.5" width="483.87" height="5.82"/>

</svg>
