<?xml version="1.0" encoding="utf-8"?>
<!-- Generator: Adobe Illustrator 23.0.6, SVG Export Plug-In . SVG Version: 6.00 Build 0)  -->
<svg version="1.1" id="Layer_1" xmlns="http://www.w3.org/2000/svg" xmlns:xlink="http://www.w3.org/1999/xlink" x="0px" y="0px"
	 viewBox="0 0 512 256" style="enable-background:new 0 0 512 256;" xml:space="preserve">
<style type="text/css">
	.st0{fill:#0091FF;}
	.st1{fill:#FF9600;}
	.st2{fill:#FFFFFF;}
</style>
<g>
	<g>
		<path d="M130.66,101.55l-43.78,0.59c0,0,7.89-16.96,7.69-18.16c-0.2-1.21-1.93-2.36-3.77-2.4c-3.58-0.08-5.16,1.29-9.09,8.08
			c-3.04,5.25-5.42,10.24,7.43,17.95c11.83,7.09,24.6,14.13,26.13,22.2c1.85,9.73-1.67,19.86-8.71,32.42
			c-4.94,8.81-15.11,16.3-21.38,19.43c-7.77,3.89-25.27,9.03-42.77,9.03c-8.87,0-34.97-3.2-36.91-17.86
			c-0.69-5.18,0.22-12.56,4.87-22.11l4.57-9.76h44.38l-8.06,16.92c-2.33,4.77-3,10.18,0.89,10.18c2.2,0,3.79,0.2,5.71-1.53
			c1.92-1.73,3.71-4.3,5.37-7.71c3.66-7.5,4.62-10.09,3.93-12.48c-0.94-3.25-8.3-7.62-17.56-14.22
			c-6.92-4.93-14.42-10.25-17.07-13.77c-1.73-2.29-2.03-5.88-1.66-10.23c0.37-4.35,2.2-9.92,5.5-16.68
			c4.76-9.76,12.47-19.4,20.26-24.03c15.9-9.47,32.38-9.47,47.55-9.47c8.6,0,16.75,1.21,21.82,3.24
			c9.72,3.89,13.35,9.43,13.35,13.32c0,4.23,0.55,9.52-4.39,19.65L130.66,101.55z"/>
		<path d="M267.89,60.6l-58.3,127.42h-42.76l7.4-53.47l-24.89,53.47h-40.81L164.88,60.6h41.11l-2.87,54.21l23.96-54.21H267.89z"/>
		<g>
			<path d="M451.45,60.6l-76.9,127.42h-60.02c5.76-19.58,9.41-36.01,18.69-60.98c-6.54,10.71-17.52,27.14-38.86,60.98h-57.57
				L275.66,60.6h46.76l-18.17,47.78l-13.04,34.42c12.07-22.24,25.27-48.59,47.07-82.19h49.35c-11.56,34.02-30.34,82.19-30.34,82.19
				c15.55-23.32,27.98-52.7,46.64-82.19H451.45z"/>
		</g>
	</g>
	<g>
		<path class="st0" d="M163.39,85.42l-43.78,0.59c0,0,7.89-16.96,7.69-18.16c-0.2-1.21-1.93-2.36-3.77-2.4
			c-3.58-0.08-5.16,1.29-9.09,8.08c-3.04,5.25-5.42,10.24,7.43,17.95c11.83,7.09,24.6,14.13,26.13,22.2
			c1.85,9.73-1.67,19.86-8.71,32.42c-4.94,8.81-15.11,16.3-21.38,19.43c-7.77,3.89-25.27,9.03-42.77,9.03
			c-8.87,0-34.97-3.2-36.91-17.86c-0.69-5.18,0.22-12.56,4.87-22.11l4.57-9.76h44.38L84,141.74c-2.33,4.77-3,10.18,0.89,10.18
			c2.2,0,3.79,0.2,5.71-1.53c1.92-1.73,3.71-4.3,5.37-7.71c3.66-7.5,4.62-10.09,3.93-12.48c-0.94-3.25-8.3-7.62-17.56-14.22
			c-6.92-4.93-14.42-10.25-17.07-13.77c-1.73-2.29-2.03-5.88-1.66-10.23c0.37-4.35,2.2-9.92,5.5-16.68
			c4.76-9.76,12.47-19.4,20.26-24.03c15.9-9.47,32.38-9.47,47.55-9.47c8.6,0,16.75,1.21,21.82,3.24
			c9.72,3.89,13.35,9.43,13.35,13.32c0,4.23,0.55,9.52-4.39,19.65L163.39,85.42z"/>
		<path class="st0" d="M300.62,44.47l-58.3,127.42h-42.76l7.4-53.47l-24.89,53.47h-40.81l56.36-127.42h41.11l-2.87,54.21
			l23.96-54.21H300.62z"/>
		<g>
			<path class="st0" d="M484.18,44.47l-76.9,127.42h-60.02c5.76-19.58,9.41-36.01,18.69-60.98c-6.54,10.71-17.52,27.14-38.86,60.98
				h-57.57l38.87-127.42h46.76l-18.17,47.78l-13.04,34.42c12.07-22.24,25.27-48.59,47.07-82.19h49.35
				c-11.56,34.02-30.34,82.19-30.34,82.19c15.55-23.32,27.98-52.7,46.64-82.19H484.18z"/>
		</g>
	</g>
	<g>
		<path class="st1" d="M31.69,227.3c0,0-0.59-0.22-1.76-0.66c-1.17-0.44-2-1.1-2.49-1.96s-0.61-1.93-0.37-3.2l5.8-1.75
			c-0.14,1.16,0.11,2.03,0.74,2.62c0.63,0.59,1.63,0.89,3,0.89c1.53,0,2.86-0.27,3.97-0.81c1.11-0.54,1.91-1.31,2.4-2.31l0.58-1.18
			c0.34-0.7,0.4-1.28,0.17-1.73c-0.23-0.46-0.65-0.81-1.27-1.05c-0.62-0.25-1.47-0.52-2.54-0.81c-0.02-0.01-0.04-0.02-0.06-0.04
			c-0.02-0.01-0.04-0.02-0.06-0.04l-0.25-0.06c-1.62-0.41-2.9-0.84-3.82-1.29c-0.92-0.46-1.55-1.17-1.89-2.13s-0.1-2.27,0.7-3.9
			l0.36-0.74c0.74-1.53,1.77-2.83,3.09-3.91c1.32-1.08,2.86-1.9,4.63-2.46s3.71-0.84,5.82-0.84c1.59,0,2.91,0.21,3.94,0.63
			c1.03,0.42,1.76,1.05,2.17,1.88s0.53,1.86,0.34,3.08l-5.58,1.77c0.09-1.08-0.13-1.9-0.65-2.45c-0.52-0.55-1.31-0.83-2.37-0.83
			c-1.5,0-2.79,0.26-3.85,0.77c-1.06,0.52-1.83,1.25-2.29,2.2l-0.41,0.85c-0.36,0.74-0.41,1.34-0.15,1.81
			c0.26,0.47,0.69,0.83,1.3,1.09s1.49,0.54,2.63,0.85c0.07,0.01,0.14,0.03,0.21,0.05c0.07,0.02,0.13,0.05,0.19,0.08
			c0.07,0.01,0.13,0.02,0.19,0.03c0.06,0.01,0.11,0.02,0.17,0.03c1.49,0.43,2.66,0.88,3.5,1.34c0.85,0.46,1.42,1.16,1.71,2.09
			c0.3,0.93,0.07,2.17-0.68,3.71l-0.58,1.2c-0.74,1.53-1.78,2.83-3.11,3.91c-1.33,1.08-2.9,1.9-4.7,2.46
			c-1.8,0.56-3.78,0.84-5.96,0.84C32.61,227.3,31.69,227.3,31.69,227.3z"/>
		<path class="st1" d="M58.1,220.75c-0.41,0.85-0.46,1.5-0.13,1.96c0.33,0.46,1.02,0.69,2.07,0.69c1.03,0,1.93-0.22,2.69-0.66
			c0.76-0.44,1.35-1.09,1.77-1.96l-1.19,3.1c-0.94,1.06-2.01,1.89-3.21,2.5c-1.2,0.61-2.46,0.91-3.78,0.91
			c-2.13,0-3.49-0.55-4.09-1.66c-0.6-1.11-0.39-2.71,0.64-4.81l6.32-12.95h5.19L58.1,220.75z M70.8,207.87h5.17l-9.34,19.15h-5.17
			L70.8,207.87z"/>
		<path class="st1" d="M81.64,207.87h5.24l-9.34,19.15H72.3L81.64,207.87z M90.27,214.51c0.47-0.97,0.55-1.71,0.22-2.22
			c-0.33-0.51-1.04-0.77-2.13-0.77c-1.06,0-1.99,0.25-2.79,0.74c-0.79,0.49-1.42,1.21-1.88,2.14l1.09-3.21
			c1.17-1.19,2.41-2.1,3.71-2.71c1.3-0.61,2.61-0.92,3.93-0.92c2.05,0,3.37,0.56,3.95,1.67c0.58,1.11,0.37,2.7-0.63,4.75
			l-6.36,13.04h-5.22L90.27,214.51z"/>
		<path class="st1" d="M97.7,226.55c-0.71-0.54-1.08-1.3-1.1-2.31s0.32-2.22,1.02-3.66l3.03-6.22c0.7-1.44,1.56-2.67,2.56-3.69
			s2.12-1.8,3.34-2.33c1.22-0.53,2.5-0.8,3.85-0.8c1.2,0,2.15,0.3,2.85,0.9c0.7,0.6,1.09,1.45,1.16,2.55l-2.1,3.32
			c0.3-0.61,0.43-1.14,0.39-1.57c-0.04-0.43-0.24-0.76-0.6-0.99s-0.88-0.34-1.56-0.34c-1.03,0-1.97,0.28-2.82,0.84
			c-0.85,0.56-1.52,1.34-2.01,2.35l-2.82,5.77c-0.48,0.98-0.56,1.74-0.25,2.28c0.32,0.53,0.99,0.8,2.02,0.8
			c0.68,0,1.31-0.11,1.89-0.33c0.58-0.22,1.1-0.55,1.56-0.98c0.46-0.43,0.84-0.95,1.13-1.55l-1.35,3.41
			c-0.94,1.03-2.04,1.85-3.28,2.44c-1.24,0.6-2.51,0.89-3.82,0.89C99.45,227.35,98.41,227.08,97.7,226.55z M119.21,200.19h5.22
			l-13.08,26.82h-5.22L119.21,200.19z"/>
		<path class="st1" d="M118.55,225.87c-0.69-0.95-0.58-2.37,0.35-4.26c0.97-1.98,2.36-3.48,4.18-4.49c1.82-1.01,4.04-1.52,6.65-1.52
			h4.35l-1.34,3.39h-4.58c-1.03,0-1.92,0.22-2.65,0.65c-0.74,0.44-1.32,1.09-1.74,1.96c-0.36,0.74-0.36,1.29,0.01,1.64
			c0.37,0.36,1.09,0.53,2.16,0.53c1.32,0,2.41-0.18,3.25-0.55c0.85-0.37,1.45-0.92,1.8-1.64l-0.62,2.2
			c-0.51,0.77-1.15,1.42-1.91,1.95c-0.76,0.52-1.6,0.91-2.52,1.17c-0.92,0.26-1.91,0.39-2.96,0.39
			C120.72,227.3,119.24,226.82,118.55,225.87z M134.69,214.01c0.41-0.85,0.44-1.51,0.07-1.98c-0.37-0.47-1.11-0.71-2.22-0.71
			c-0.79,0-1.57,0.15-2.33,0.44c-0.77,0.3-1.46,0.7-2.07,1.22l-3.62-1.22c1.13-1.33,2.56-2.36,4.28-3.1
			c1.72-0.74,3.59-1.11,5.61-1.11c1.75,0,3.12,0.25,4.12,0.76c1,0.5,1.6,1.23,1.79,2.19c0.2,0.95-0.03,2.1-0.69,3.44l-6.38,13.08
			h-4.9L134.69,214.01z"/>
		<path class="st1" d="M145.52,207.87h5.08l-1.9,16.6l-4.94,4.24L145.52,207.87z M164.43,207.87l-20.04,23.63
			c-0.71,0.82-1.47,1.49-2.3,2.01c-0.83,0.52-1.75,0.89-2.76,1.13c-1.01,0.24-2.16,0.36-3.43,0.36h-1.16l2-4.1h1.21
			c0.85,0,1.58-0.14,2.19-0.41c0.61-0.27,1.2-0.74,1.77-1.42l17.45-21.22H164.43z"/>
		<path class="st1" d="M182.41,200.19h5.01l1.65,19.92l-0.88,0.54l9.98-20.46h4.97L190.06,227h-5.08l-1.84-19.35l0.85-0.54
			L174.3,227h-4.97L182.41,200.19z"/>
		<path class="st1" d="M208.81,200.27h5.17l-2.04,4.19h-5.17L208.81,200.27z M205.1,207.87h5.17l-9.34,19.15h-5.17L205.1,207.87z"/>
		<path class="st1" d="M209.06,226.54c-0.72-0.53-1.09-1.3-1.1-2.31c-0.01-1.01,0.33-2.23,1.03-3.65l3.03-6.22
			c0.7-1.44,1.56-2.67,2.56-3.69s2.12-1.8,3.33-2.32c1.21-0.53,2.5-0.79,3.85-0.79c1.21,0,2.17,0.3,2.86,0.9
			c0.69,0.6,1.07,1.45,1.14,2.53l-2.09,3.3c0.31-0.63,0.44-1.15,0.4-1.57c-0.04-0.42-0.24-0.75-0.59-0.99
			c-0.35-0.24-0.87-0.36-1.56-0.36c-1.03,0-1.98,0.28-2.84,0.85c-0.86,0.57-1.53,1.35-2.02,2.34l-2.84,5.83
			c-0.48,0.98-0.56,1.74-0.25,2.28c0.32,0.53,1,0.8,2.05,0.8c0.68,0,1.31-0.11,1.89-0.33c0.58-0.22,1.09-0.54,1.54-0.97
			s0.82-0.94,1.12-1.54l-1.33,3.38c-0.91,1.02-1.99,1.83-3.23,2.43c-1.25,0.6-2.52,0.89-3.83,0.89
			C210.83,227.33,209.78,227.07,209.06,226.54z M205.38,233.6c-0.91-0.81-1.13-1.99-0.66-3.55l5.57-1.24
			c-0.17,0.71-0.07,1.26,0.27,1.63c0.35,0.38,0.92,0.56,1.71,0.56c1.03,0,1.96-0.25,2.77-0.76c0.82-0.5,1.44-1.21,1.89-2.12
			l9.88-20.26h5.24l-9.76,20.02c-0.72,1.48-1.68,2.73-2.88,3.75c-1.2,1.03-2.59,1.81-4.18,2.35c-1.58,0.54-3.31,0.81-5.18,0.81
			C207.85,234.8,206.29,234.4,205.38,233.6z"/>
		<path class="st1" d="M241.46,200.19h5.22l-13.08,26.82h-5.22L241.46,200.19z M246.34,214.53c0.47-0.97,0.55-1.71,0.22-2.22
			c-0.33-0.51-1.04-0.77-2.13-0.77c-1.06,0-1.99,0.24-2.79,0.73c-0.8,0.49-1.43,1.2-1.88,2.13l1.13-3.25
			c1.16-1.16,2.39-2.04,3.69-2.67c1.31-0.62,2.62-0.93,3.94-0.93c2.05,0,3.37,0.56,3.95,1.67c0.58,1.11,0.37,2.7-0.63,4.75
			l-6.36,13.04h-5.22L246.34,214.53z"/>
		<path class="st1" d="M258.65,207.87h10.8l-1.85,3.8h-10.8L258.65,207.87z M253.62,225.84c-0.53-0.85-0.38-2.12,0.44-3.8
			l9.63-19.74h5.22l-9.39,19.26c-0.23,0.48-0.29,0.85-0.16,1.11c0.12,0.26,0.42,0.39,0.89,0.39h1.8l-1.98,4.06h-2.64
			C255.41,227.11,254.15,226.69,253.62,225.84z"/>
		<path class="st1" d="M300.47,200.19h3.94l-4.34,19.56l13.23-19.56h5.33l-19.23,26.82h-5.17l4.18-18.25l-13.89,18.25h-5.19
			l6.96-26.82h5.33l-5.87,19.56L300.47,200.19z"/>
		<path class="st1" d="M316.91,207.87h5.33l-9.34,19.15h-5.33L316.91,207.87z M326.16,211.88c-0.33-0.08-0.72-0.12-1.19-0.12
			c-1.46,0-2.75,0.33-3.88,1c-1.13,0.66-1.99,1.59-2.58,2.77l1.63-4.32c1.26-1.16,2.61-2.05,4.05-2.69
			c1.44-0.64,2.83-0.96,4.18-0.96c0.5,0,0.93,0.06,1.29,0.19c0.36,0.13,0.64,0.32,0.82,0.56l-3.56,3.93
			C326.74,212.08,326.48,211.96,326.16,211.88z"/>
		<path class="st1" d="M328.18,226.44c-1.05-0.57-1.66-1.41-1.83-2.5c-0.17-1.09,0.13-2.43,0.89-4l2.28-4.67
			c0.79-1.62,1.81-3.01,3.05-4.16c1.24-1.15,2.66-2.03,4.24-2.63c1.58-0.6,3.3-0.9,5.13-0.9c1.78,0,3.14,0.32,4.08,0.96
			c0.94,0.64,1.44,1.58,1.49,2.82c0.05,1.24-0.34,2.72-1.18,4.45l-1.6,3.28h-13.35l1.56-3.19h8.43l0.61-1.2
			c0.49-1.03,0.56-1.85,0.23-2.45c-0.34-0.6-1.04-0.9-2.1-0.9c-1.2,0-2.29,0.33-3.26,0.99c-0.97,0.66-1.75,1.57-2.32,2.74
			l-2.43,4.98c-0.53,1.09-0.6,1.94-0.19,2.53s1.25,0.89,2.51,0.89c0.85,0,1.64-0.17,2.38-0.51c0.73-0.34,1.4-0.83,1.99-1.49
			l3.88,1.29c-1.18,1.51-2.62,2.65-4.31,3.4c-1.7,0.76-3.61,1.13-5.73,1.13C330.71,227.3,329.23,227.01,328.18,226.44z"/>
		<path class="st1" d="M349.76,226.48c-1.06-0.54-1.68-1.34-1.85-2.41s0.09-2.34,0.82-3.83l2.71-5.55c0.73-1.49,1.7-2.77,2.92-3.85
			c1.22-1.08,2.63-1.89,4.22-2.44c1.59-0.55,3.32-0.83,5.19-0.83c1.58,0,2.83,0.18,3.76,0.55c0.93,0.37,1.54,0.94,1.85,1.72
			c0.3,0.78,0.28,1.74-0.06,2.89l-5.39,1.25c0.19-0.82,0.11-1.44-0.22-1.85c-0.34-0.41-0.95-0.62-1.85-0.62
			c-1.14,0-2.17,0.28-3.09,0.84c-0.92,0.56-1.64,1.37-2.15,2.43l-2.62,5.37c-0.5,1.02-0.56,1.8-0.19,2.35
			c0.37,0.55,1.13,0.82,2.29,0.82c0.9,0,1.71-0.2,2.46-0.6c0.74-0.4,1.4-0.99,1.98-1.78l4.16,1.33c-0.78,1.13-1.69,2.07-2.72,2.82
			c-1.03,0.75-2.2,1.3-3.51,1.66c-1.31,0.36-2.74,0.54-4.3,0.54C352.28,227.3,350.82,227.02,349.76,226.48z"/>
		<path class="st1" d="M379.48,200.19h5.19l-13.08,26.82h-5.19L379.48,200.19z M372.66,219.64l15.65-11.77h5.6l-23.53,16.95
			L372.66,219.64z M378.68,216.87l4.88-2.67l2.06,12.82h-5.74L378.68,216.87z"/>
		<path class="st1" d="M395.62,207.87h11.73l-1.79,3.67h-11.73L395.62,207.87z M399.26,205.27c0.83-1.7,1.94-2.97,3.33-3.81
			s3.1-1.26,5.11-1.26h3.39l-1.92,3.93h-2.69c-0.49,0-0.92,0.14-1.29,0.41c-0.37,0.27-0.67,0.63-0.9,1.09l-10.44,21.4h-5.22
			L399.26,205.27z"/>
		<path class="st1" d="M404.54,226.44c-1.05-0.57-1.66-1.41-1.83-2.5c-0.17-1.09,0.13-2.43,0.89-4l2.28-4.67
			c0.79-1.62,1.81-3.01,3.05-4.16s2.66-2.03,4.24-2.63c1.58-0.6,3.3-0.9,5.13-0.9c1.78,0,3.14,0.32,4.08,0.96
			c0.94,0.64,1.44,1.58,1.49,2.82c0.05,1.24-0.34,2.72-1.18,4.45l-1.6,3.28h-13.35l1.56-3.19h8.43l0.61-1.2
			c0.49-1.03,0.56-1.85,0.23-2.45c-0.34-0.6-1.04-0.9-2.1-0.9c-1.2,0-2.29,0.33-3.26,0.99c-0.97,0.66-1.75,1.57-2.32,2.74
			l-2.43,4.98c-0.53,1.09-0.6,1.94-0.19,2.53c0.41,0.59,1.25,0.89,2.51,0.89c0.85,0,1.64-0.17,2.38-0.51
			c0.73-0.34,1.4-0.83,1.99-1.49l3.88,1.29c-1.18,1.51-2.62,2.65-4.31,3.4c-1.7,0.76-3.61,1.13-5.73,1.13
			C407.08,227.3,405.59,227.01,404.54,226.44z"/>
		<path class="st1" d="M425.31,226.78c-1.05-0.34-1.81-0.87-2.25-1.57c-0.45-0.7-0.6-1.54-0.45-2.53l5.22-1.73
			c0.05,0.82,0.38,1.45,0.97,1.89c0.59,0.44,1.42,0.65,2.48,0.65c1.18,0,2.18-0.19,3-0.56c0.81-0.38,1.38-0.89,1.71-1.56
			c0.24-0.49,0.25-0.88,0.02-1.16c-0.23-0.28-0.58-0.5-1.06-0.64s-1.16-0.29-2.06-0.45c-0.12-0.02-0.26-0.05-0.41-0.06
			c-0.15-0.02-0.3-0.05-0.44-0.1c-0.05,0-0.08-0.01-0.12-0.02s-0.08-0.02-0.13-0.04c-1.22-0.23-2.21-0.52-2.96-0.85
			s-1.24-0.87-1.48-1.61c-0.24-0.74-0.05-1.74,0.56-3c0.61-1.24,1.44-2.3,2.5-3.17s2.32-1.54,3.75-2c1.44-0.46,3.02-0.69,4.73-0.69
			c1.44,0,2.64,0.16,3.6,0.49c0.96,0.33,1.65,0.81,2.09,1.44c0.44,0.63,0.61,1.41,0.52,2.33l-5.25,1.7c-0.04-0.7-0.3-1.24-0.78-1.6
			c-0.48-0.37-1.17-0.55-2.06-0.55c-1.05,0-1.93,0.17-2.65,0.52c-0.72,0.34-1.24,0.84-1.56,1.49c-0.22,0.46-0.22,0.82,0.02,1.09
			c0.23,0.27,0.6,0.47,1.1,0.6c0.5,0.13,1.21,0.27,2.13,0.43c0.04,0.01,0.08,0.02,0.12,0.03c0.04,0.01,0.09,0.01,0.13,0.01
			c0.02,0.01,0.06,0.02,0.1,0.03s0.08,0.01,0.11,0.01c1.36,0.23,2.45,0.5,3.27,0.81c0.82,0.31,1.38,0.86,1.67,1.65
			c0.29,0.79,0.09,1.88-0.58,3.27c-0.61,1.25-1.48,2.33-2.6,3.23s-2.45,1.58-3.98,2.05c-1.53,0.47-3.21,0.7-5.03,0.7
			C427.68,227.3,426.36,227.12,425.31,226.78z"/>
		<path class="st1" d="M450.37,207.87h10.8l-1.85,3.8h-10.8L450.37,207.87z M445.34,225.84c-0.53-0.85-0.38-2.12,0.44-3.8
			l9.63-19.74h5.22l-9.39,19.26c-0.23,0.48-0.29,0.85-0.16,1.11c0.12,0.26,0.42,0.39,0.89,0.39h1.8l-1.98,4.06h-2.64
			C447.14,227.11,445.87,226.69,445.34,225.84z"/>
	</g>
	<g>
		<path class="st2" d="M190.66,70.39l-43.78,0.59c0,0,7.89-16.96,7.69-18.16c-0.2-1.21-1.93-2.36-3.77-2.4
			c-3.58-0.08-5.16,1.29-9.09,8.08c-3.04,5.25-5.42,10.24,7.43,17.95c11.83,7.09,24.6,14.13,26.13,22.2
			c1.85,9.73-1.67,19.86-8.71,32.42c-4.94,8.81-15.11,16.3-21.38,19.43c-7.77,3.89-25.27,9.03-42.77,9.03
			c-8.87,0-34.97-3.2-36.91-17.86c-0.69-5.18,0.22-12.56,4.87-22.11l4.57-9.76h44.38l-8.06,16.92c-2.33,4.77-3,10.18,0.89,10.18
			c2.2,0,3.79,0.2,5.71-1.53c1.92-1.73,3.71-4.3,5.37-7.71c3.66-7.5,4.62-10.09,3.93-12.48c-0.94-3.25-8.3-7.62-17.56-14.22
			c-6.92-4.93-14.42-10.25-17.07-13.77c-1.73-2.29-2.03-5.88-1.66-10.23c0.37-4.35,2.2-9.92,5.5-16.68
			c4.76-9.76,12.47-19.4,20.26-24.03c15.9-9.47,32.38-9.47,47.55-9.47c8.6,0,16.75,1.21,21.82,3.24
			c9.72,3.89,13.35,9.43,13.35,13.32c0,4.23,0.55,9.52-4.39,19.65L190.66,70.39z"/>
		<path class="st2" d="M327.89,29.44l-58.3,127.42h-42.76l7.4-53.47l-24.89,53.47h-40.81l56.36-127.42h41.11l-2.87,54.21
			l23.96-54.21H327.89z"/>
		<g>
			<path class="st2" d="M511.45,29.44l-76.9,127.42h-60.02c5.76-19.58,9.41-36.01,18.69-60.98c-6.54,10.71-17.52,27.14-38.86,60.98
				H296.8l38.87-127.42h46.76l-18.17,47.78l-13.04,34.42c12.07-22.24,25.27-48.59,47.07-82.19h49.35
				c-11.56,34.02-30.34,82.19-30.34,82.19c15.55-23.32,27.98-52.7,46.64-82.19H511.45z"/>
		</g>
	</g>
	<rect x="4.42" y="10.61" width="508" height="5.83"/>
	<rect x="0.42" y="238.67" width="484.63" height="5.83"/>
</g>
</svg>
